<?xml version="1.0" encoding="utf-8"?>
<!-- Generator: Adobe Illustrator 15.0.0, SVG Export Plug-In . SVG Version: 6.00 Build 0)  -->
<!DOCTYPE svg PUBLIC "-//W3C//DTD SVG 1.1//EN" "http://www.w3.org/Graphics/SVG/1.1/DTD/svg11.dtd">
<svg version="1.1" xmlns="http://www.w3.org/2000/svg" xmlns:xlink="http://www.w3.org/1999/xlink" x="0px" y="0px" width="350px"
	 height="100px" viewBox="0 0 350 100" enable-background="new 0 0 350 100" xml:space="preserve">
<g id="Layer_1">
	<path fill="#597498" d="M5.619,25.264c0-2.888,0.542-5.61,1.625-8.168c1.084-2.558,2.573-4.784,4.468-6.679
		c1.896-1.896,4.121-3.399,6.68-4.514c2.556-1.113,5.28-1.67,8.168-1.67s5.61,0.557,8.168,1.67c2.557,1.114,4.784,2.618,6.68,4.514
		c1.895,1.895,3.398,4.122,4.513,6.679c1.112,2.558,1.669,5.28,1.669,8.168v16.337c0,2.888-0.557,5.612-1.669,8.169
		c-1.114,2.559-2.618,4.783-4.513,6.68c-1.896,1.896-4.124,3.385-6.68,4.468c-2.558,1.082-5.28,1.624-8.168,1.624
		S20.948,62,18.392,60.918c-2.559-1.083-4.784-2.572-6.68-4.468c-1.895-1.896-3.384-4.121-4.468-6.68
		c-1.083-2.557-1.625-5.281-1.625-8.169V25.264z M11.215,41.602c0,2.107,0.407,4.093,1.219,5.958
		c0.812,1.865,1.91,3.489,3.294,4.874c1.384,1.385,3.009,2.481,4.875,3.295c1.864,0.812,3.85,1.218,5.957,1.218
		c2.105,0,4.091-0.406,5.957-1.218c1.865-0.813,3.505-1.91,4.92-3.295c1.413-1.385,2.527-3.009,3.339-4.874
		c0.812-1.865,1.218-3.851,1.218-5.958V25.264c0-2.105-0.406-4.091-1.218-5.957c-0.813-1.864-1.927-3.505-3.339-4.919
		c-1.415-1.414-3.055-2.527-4.92-3.34c-1.866-0.813-3.852-1.219-5.957-1.219c-2.107,0-4.093,0.406-5.957,1.219
		c-1.866,0.813-3.491,1.926-4.875,3.34c-1.385,1.414-2.482,3.055-3.294,4.919c-0.812,1.866-1.219,3.852-1.219,5.957V41.602z"/>
	<path fill="#597498" d="M85.868,62.479c-3.371-0.119-6.44-0.977-9.207-2.572c-2.768-1.594-5.145-3.475-7.13-5.641v21.753
		c0,0.781-0.271,1.443-0.813,1.985c-0.542,0.542-1.205,0.813-1.985,0.813c-0.784,0-1.445-0.271-1.986-0.813
		c-0.542-0.542-0.813-1.204-0.813-1.985V40.545c0-3.128,0.572-6.017,1.715-8.665c1.143-2.648,2.708-4.934,4.694-6.86
		c1.986-1.925,4.287-3.43,6.905-4.513c2.617-1.083,5.429-1.624,8.439-1.624c3.068,0,5.926,0.572,8.575,1.715
		c2.647,1.144,4.949,2.708,6.905,4.694c1.955,1.985,3.505,4.287,4.648,6.904c1.143,2.619,1.715,5.402,1.715,8.349
		c0,3.01-0.587,5.838-1.761,8.485c-1.173,2.648-2.753,4.963-4.739,6.95c-1.985,1.985-4.287,3.565-6.905,4.738
		C91.509,61.893,88.756,62.479,85.868,62.479z M69.531,40.545c0.059,2.347,0.542,4.514,1.444,6.5c0.902,1.985,2.076,3.7,3.52,5.145
		c1.444,1.443,3.128,2.571,5.055,3.385c1.924,0.812,3.971,1.218,6.137,1.218c2.226,0,4.333-0.42,6.318-1.264
		c1.985-0.842,3.715-1.999,5.19-3.476c1.474-1.473,2.632-3.204,3.475-5.189c0.842-1.986,1.264-4.092,1.264-6.319
		c0-2.226-0.422-4.316-1.264-6.273c-0.843-1.955-2.001-3.669-3.475-5.146c-1.475-1.473-3.205-2.631-5.19-3.475
		c-1.985-0.842-4.092-1.264-6.318-1.264c-2.227,0-4.318,0.422-6.273,1.264c-1.956,0.843-3.671,2.001-5.145,3.475
		c-1.475,1.477-2.633,3.191-3.475,5.146C69.952,36.229,69.531,38.32,69.531,40.545z"/>
	<path fill="#597498" d="M121.296,6.878c0-0.782,0.271-1.445,0.812-1.986c0.542-0.542,1.203-0.813,1.986-0.813
		c0.782,0,1.444,0.271,1.985,0.813c0.542,0.541,0.813,1.204,0.813,1.986v11.553h19.949c0.962,0,1.729,0.271,2.301,0.813
		c0.57,0.542,0.857,1.204,0.857,1.986c0,0.782-0.287,1.444-0.857,1.986c-0.573,0.541-1.339,0.812-2.301,0.812h-19.949v16.698
		c0,2.228,0.42,4.319,1.264,6.275c0.843,1.955,2,3.67,3.475,5.144c1.474,1.476,3.189,2.633,5.145,3.475
		c1.955,0.844,4.047,1.264,6.274,1.264c2.225,0,4.301-0.406,6.228-1.217c1.924-0.814,3.61-1.942,5.055-3.386
		c0.481-0.542,1.097-0.858,1.851-0.949c0.751-0.09,1.458,0.106,2.121,0.587c0.481,0.482,0.781,1.085,0.902,1.806
		c0.12,0.723-0.031,1.415-0.451,2.076c-1.986,2.106-4.333,3.746-7.041,4.919c-2.707,1.174-5.596,1.76-8.665,1.76
		c-3.009,0-5.838-0.571-8.485-1.715c-2.648-1.141-4.95-2.691-6.905-4.647c-1.956-1.955-3.506-4.258-4.648-6.906
		c-1.144-2.647-1.715-5.474-1.715-8.484V6.878z"/>
	<path fill="#597498" d="M194.092,18.793c2.89,0,5.642,0.586,8.26,1.76c2.619,1.173,4.918,2.753,6.904,4.739
		c1.985,1.985,3.565,4.303,4.74,6.949c1.172,2.649,1.759,5.477,1.759,8.484v19.046c0,0.783-0.271,1.443-0.81,1.986
		c-0.543,0.541-1.206,0.812-1.986,0.812c-0.785,0-1.445-0.271-1.986-0.812c-0.543-0.543-0.813-1.203-0.813-1.986v-5.506
		c-1.986,2.227-4.38,4.138-7.176,5.731c-2.8,1.596-5.823,2.392-9.072,2.392c-3.01,0-5.822-0.541-8.439-1.625
		c-2.617-1.083-4.918-2.586-6.904-4.513c-1.986-1.925-3.553-4.211-4.695-6.86c-1.143-2.647-1.714-5.536-1.714-8.666
		c0-3.008,0.556-5.821,1.669-8.438c1.114-2.618,2.648-4.904,4.603-6.86c1.955-1.955,4.273-3.52,6.951-4.693
		C188.059,19.56,190.965,18.914,194.092,18.793z M177.754,40.726c0,2.228,0.422,4.319,1.265,6.275c0.843,1.955,2,3.67,3.475,5.144
		c1.476,1.476,3.19,2.633,5.146,3.475c1.955,0.844,4.047,1.264,6.273,1.264c2.166,0,4.211-0.406,6.138-1.217
		c1.926-0.814,3.625-1.942,5.1-3.386c1.473-1.445,2.647-3.144,3.52-5.101c0.872-1.955,1.368-4.106,1.491-6.454
		c0-2.226-0.424-4.332-1.264-6.317c-0.844-1.986-2.002-3.715-3.475-5.19c-1.477-1.474-3.206-2.631-5.192-3.475
		c-1.985-0.841-4.092-1.264-6.317-1.264c-2.227,0-4.318,0.423-6.273,1.264c-1.955,0.844-3.67,2.001-5.146,3.475
		c-1.475,1.476-2.632,3.205-3.475,5.19S177.754,38.5,177.754,40.726z"/>
	<path fill="#597498" d="M295.186,43.344c0.301,1.927,0.933,3.716,1.896,5.37c0.962,1.656,2.151,3.085,3.565,4.289
		c1.412,1.203,3.023,2.15,4.83,2.842c1.804,0.692,3.7,1.038,5.687,1.038c2.225,0,4.3-0.406,6.228-1.217
		c1.925-0.814,3.641-1.942,5.145-3.386c0.541-0.542,1.203-0.813,1.985-0.813c0.781,0,1.445,0.271,1.986,0.813
		c0.541,0.541,0.812,1.204,0.812,1.985c0,0.783-0.271,1.444-0.812,1.985c-1.986,2.228-4.229,3.807-6.725,4.739
		c-2.498,0.933-5.371,1.398-8.619,1.398c-3.012,0-5.823-0.541-8.441-1.625c-2.617-1.083-4.918-2.586-6.904-4.513
		c-1.983-1.925-3.551-4.211-4.693-6.86c-1.144-2.647-1.715-5.536-1.715-8.666c0-3.008,0.556-5.821,1.67-8.438
		c1.112-2.618,2.647-4.904,4.603-6.86c1.955-1.955,4.272-3.52,6.95-4.693s5.58-1.82,8.711-1.94c2.888,0,5.611,0.572,8.168,1.714
		c2.558,1.144,4.83,2.678,6.815,4.604c1.986,1.926,3.566,4.183,4.739,6.77c1.172,2.587,1.818,5.357,1.94,8.304
		c0.121,1.024-0.136,1.806-0.769,2.347c-0.631,0.542-1.308,0.813-2.031,0.813H295.186z M311.164,24.479
		c-1.986,0-3.867,0.348-5.642,1.039c-1.776,0.692-3.371,1.625-4.785,2.799c-1.413,1.172-2.589,2.572-3.52,4.196
		c-0.934,1.625-1.58,3.371-1.94,5.235h31.861c-0.36-1.864-1.024-3.611-1.985-5.235c-0.963-1.624-2.152-3.024-3.566-4.196
		c-1.414-1.174-3.009-2.107-4.783-2.799C315.029,24.826,313.149,24.479,311.164,24.479z"/>
	<g>
		<path fill="#E86850" d="M252.616,33.581c0.944,0,1.841,0.185,2.689,0.55c0.85,0.366,1.593,0.868,2.229,1.503
			c0.635,0.638,1.143,1.379,1.519,2.228s0.564,1.765,0.564,2.748c0,0.965-0.186,1.867-0.55,2.705
			c-0.366,0.838-0.863,1.577-1.49,2.214c-0.628,0.636-1.365,1.137-2.214,1.503c-0.849,0.368-1.764,0.551-2.747,0.551
			c-0.965,0-1.872-0.175-2.721-0.522s-1.59-0.833-2.227-1.46c-0.637-0.628-1.14-1.365-1.505-2.214
			c-0.366-0.848-0.55-1.774-0.55-2.777c0-0.964,0.178-1.865,0.536-2.704c0.357-0.839,0.847-1.573,1.475-2.2
			c0.626-0.626,1.37-1.127,2.228-1.504C250.711,33.828,251.631,33.62,252.616,33.581z M252.616,37.371
			c-0.444,0-0.858,0.083-1.245,0.246c-0.386,0.164-0.727,0.391-1.026,0.68s-0.535,0.632-0.709,1.026
			c-0.174,0.396-0.26,0.825-0.26,1.288c0,0.445,0.086,0.864,0.26,1.259c0.174,0.396,0.409,0.742,0.709,1.041
			c0.3,0.3,0.641,0.535,1.026,0.709c0.387,0.172,0.801,0.26,1.245,0.26c0.442,0,0.861-0.087,1.258-0.26
			c0.394-0.175,0.737-0.41,1.026-0.709c0.291-0.299,0.521-0.646,0.695-1.041c0.173-0.395,0.26-0.814,0.26-1.259
			c-0.039-0.887-0.356-1.639-0.955-2.256C254.303,37.738,253.542,37.41,252.616,37.371z"/>
	</g>
	<g>
		<path fill="#E86850" d="M253.07,26.89c-0.92,0-1.685,0.765-1.685,1.684c0,0.918,0.765,1.684,1.685,1.684
			c0.918,0,1.684-0.766,1.684-1.684C254.754,27.655,253.988,26.89,253.07,26.89z"/>
		<path fill="#E86850" d="M253.07,50.282c-0.92,0-1.685,0.766-1.685,1.683c0,0.92,0.765,1.685,1.685,1.685
			c0.918,0,1.684-0.765,1.684-1.685C254.754,51.048,253.988,50.282,253.07,50.282z"/>
		<path fill="#E86850" d="M244.956,33.534c0.429,0,0.857-0.154,1.163-0.46c0.337-0.306,0.491-0.735,0.521-1.163
			c0-0.461-0.154-0.858-0.46-1.194s-0.735-0.521-1.193-0.521c-0.43,0-0.858,0.153-1.165,0.459c-0.673,0.643-0.673,1.714-0.03,2.357
			C244.068,33.35,244.496,33.534,244.956,33.534z"/>
		<path fill="#E86850" d="M261.214,47.006c-0.429,0-0.857,0.153-1.163,0.459c-0.337,0.305-0.49,0.734-0.521,1.163
			c-0.03,0.427,0.153,0.857,0.458,1.193c0.307,0.337,0.736,0.521,1.194,0.521c0.429,0,0.856-0.153,1.163-0.459
			c0.337-0.306,0.491-0.735,0.521-1.164c0-0.458-0.154-0.857-0.46-1.193C262.103,47.189,261.673,47.006,261.214,47.006z"/>
		<path fill="#E86850" d="M241.375,41.525c0.918,0,1.651-0.705,1.683-1.623c0.03-0.918-0.703-1.714-1.622-1.745h-0.061
			c-0.92,0-1.655,0.705-1.686,1.623c-0.03,0.919,0.704,1.714,1.623,1.746H241.375z"/>
		<path fill="#E86850" d="M264.827,38.984h-0.062c-0.919,0-1.653,0.704-1.686,1.623c-0.03,0.458,0.154,0.887,0.46,1.193
			c0.307,0.337,0.735,0.521,1.163,0.521h0.063c0.917,0,1.651-0.704,1.683-1.623C266.479,39.81,265.744,39.045,264.827,38.984z"/>
		<path fill="#E86850" d="M244.375,46.423c-0.429,0-0.827,0.153-1.133,0.429c-0.673,0.613-0.735,1.683-0.124,2.356
			c0.307,0.369,0.766,0.551,1.257,0.551c0.428,0,0.825-0.153,1.133-0.428c0.673-0.613,0.735-1.684,0.122-2.358
			C245.293,46.607,244.864,46.423,244.375,46.423z"/>
		<path fill="#E86850" d="M261.766,34.116c0.429,0,0.827-0.153,1.133-0.429c0.336-0.307,0.518-0.704,0.549-1.164
			c0.032-0.46-0.122-0.888-0.427-1.194c-0.308-0.367-0.767-0.55-1.255-0.55c-0.43,0-0.828,0.153-1.134,0.428
			c-0.674,0.613-0.735,1.684-0.122,2.357C260.846,33.901,261.306,34.116,261.766,34.116z"/>
	</g>
	<g>
		<path fill="#597498" d="M247.783,78.727c-0.722,0.06-1.533,0.361-2.436,0.902c-0.903,0.542-1.597,1.203-2.077,1.986
			c-0.361,0.66-0.902,1.112-1.624,1.353c-0.723,0.241-1.444,0.212-2.167-0.09c-0.661-0.36-1.098-0.902-1.309-1.625
			c-0.211-0.722-0.166-1.413,0.136-2.075c0.842-1.746,2.106-3.175,3.792-4.288c1.684-1.113,3.577-1.67,5.685-1.67h11.914
			c1.266,0,2.468-0.241,3.611-0.722c1.143-0.481,2.136-1.145,2.978-1.985c0.843-0.844,1.504-1.837,1.986-2.979
			c0.481-1.144,0.724-2.347,0.724-3.611c0-1.204-0.227-2.36-0.679-3.475c-0.45-1.113-1.097-2.09-1.938-2.933
			c-1.928,1.505-4.033,2.679-6.319,3.521c-2.288,0.843-4.754,1.263-7.4,1.263c-3.011,0-5.823-0.541-8.44-1.624
			c-2.617-1.084-4.919-2.587-6.905-4.514c-1.985-1.925-3.551-4.213-4.693-6.86c-1.144-2.646-1.715-5.536-1.715-8.665
			c0-3.008,0.556-5.821,1.671-8.439c1.11-2.618,2.646-4.903,4.603-6.859c1.953-1.955,4.272-3.52,6.95-4.694
			c2.677-1.174,5.58-1.819,8.71-1.941c2.887,0,5.642,0.587,8.259,1.76c2.616,1.174,4.92,2.754,6.906,4.74
			c1.986,1.985,3.564,4.302,4.737,6.949c1.174,2.649,1.762,5.477,1.762,8.485c0,2.408-0.378,4.709-1.13,6.906
			c-0.754,2.197-1.821,4.197-3.204,6.002c1.323,1.324,2.377,2.874,3.158,4.648s1.176,3.687,1.176,5.73
			c0,2.046-0.395,3.956-1.176,5.732c-0.781,1.773-1.835,3.34-3.158,4.693c-1.323,1.354-2.889,2.422-4.692,3.205
			c-1.807,0.78-3.733,1.173-5.779,1.173H247.783z M236.5,40.636c0,2.228,0.422,4.319,1.265,6.274
			c0.843,1.956,2.001,3.671,3.476,5.144c1.474,1.477,3.188,2.634,5.145,3.476c1.956,0.844,4.046,1.264,6.274,1.264
			c2.226,0,4.332-0.42,6.318-1.264c1.985-0.842,3.714-1.999,5.189-3.476c1.473-1.473,2.632-3.188,3.475-5.144
			c0.843-1.955,1.263-4.046,1.263-6.274c0-2.226-0.42-4.332-1.263-6.317c-0.843-1.986-2.002-3.715-3.475-5.191
			c-1.476-1.473-3.204-2.631-5.189-3.475c-1.986-0.842-4.093-1.264-6.318-1.264c-2.229,0-4.318,0.422-6.274,1.264
			c-1.957,0.843-3.671,2.001-5.145,3.475c-1.475,1.477-2.633,3.205-3.476,5.191C236.922,36.304,236.5,38.41,236.5,40.636z"/>
	</g>
</g>
<g id="Layer_2">
</g>
</svg>
